<?xml version="1.0" encoding="UTF-8"?>
<svg xmlns="http://www.w3.org/2000/svg" width="256" height="256" viewBox="0 0 256 256" role="img">
<path d="M56.00 80.00L88.00 128.00" fill="none" stroke="#23C7E8" stroke-width="5" stroke-linecap="round" stroke-linejoin="round" fill-rule="evenodd"/><path d="M56.00 176.00L88.00 128.00" fill="none" stroke="#23C7E8" stroke-width="5" stroke-linecap="round" stroke-linejoin="round" fill-rule="evenodd"/><path d="M88.00 128.00L108.00 96.00" fill="none" stroke="#23C7E8" stroke-width="5" stroke-linecap="round" stroke-linejoin="round" fill-rule="evenodd"/><path d="M88.00 128.00L108.00 160.00" fill="none" stroke="#23C7E8" stroke-width="5" stroke-linecap="round" stroke-linejoin="round" fill-rule="evenodd"/><path d="M64.00 80.00A8.00 8.00 0.00 1 1 48.00 80.00A8.00 8.00 0.00 1 1 64.00 80.00" fill="#23C7E8" stroke="none" stroke-width="5" stroke-linecap="round" stroke-linejoin="round" fill-rule="evenodd"/><path d="M96.00 128.00A8.00 8.00 0.00 1 1 80.00 128.00A8.00 8.00 0.00 1 1 96.00 128.00" fill="#23C7E8" stroke="none" stroke-width="5" stroke-linecap="round" stroke-linejoin="round" fill-rule="evenodd"/><path d="M64.00 176.00A8.00 8.00 0.00 1 1 48.00 176.00A8.00 8.00 0.00 1 1 64.00 176.00" fill="#23C7E8" stroke="none" stroke-width="5" stroke-linecap="round" stroke-linejoin="round" fill-rule="evenodd"/><path d="M116.00 96.00A8.00 8.00 0.00 1 1 100.00 96.00A8.00 8.00 0.00 1 1 116.00 96.00" fill="#23C7E8" stroke="none" stroke-width="5" stroke-linecap="round" stroke-linejoin="round" fill-rule="evenodd"/><path d="M116.00 160.00A8.00 8.00 0.00 1 1 100.00 160.00A8.00 8.00 0.00 1 1 116.00 160.00" fill="#23C7E8" stroke="none" stroke-width="5" stroke-linecap="round" stroke-linejoin="round" fill-rule="evenodd"/><path d="M108.00 96.00L160.00 72.00" fill="none" stroke="#9AA1AA" stroke-width="4" stroke-linecap="round" stroke-linejoin="round" stroke-dasharray="6 7" stroke-dashoffset="0" opacity="0.400" fill-rule="evenodd"/><path d="M108.00 160.00L168.00 148.00" fill="none" stroke="#9AA1AA" stroke-width="4" stroke-linecap="round" stroke-linejoin="round" stroke-dasharray="6 7" stroke-dashoffset="0" opacity="0.400" fill-rule="evenodd"/><path d="M160.00 72.00L196.00 108.00" fill="none" stroke="#9AA1AA" stroke-width="4" stroke-linecap="round" stroke-linejoin="round" stroke-dasharray="6 7" stroke-dashoffset="0" opacity="0.400" fill-rule="evenodd"/><path d="M196.00 108.00L204.00 180.00" fill="none" stroke="#9AA1AA" stroke-width="4" stroke-linecap="round" stroke-linejoin="round" stroke-dasharray="6 7" stroke-dashoffset="0" opacity="0.400" fill-rule="evenodd"/><path d="M168.00 148.00L148.00 188.00" fill="none" stroke="#9AA1AA" stroke-width="4" stroke-linecap="round" stroke-linejoin="round" stroke-dasharray="6 7" stroke-dashoffset="0" opacity="0.400" fill-rule="evenodd"/><path d="M168.00 72.00A8.00 8.00 0.00 1 1 152.00 72.00A8.00 8.00 0.00 1 1 168.00 72.00" fill="none" stroke="#E04BB6" stroke-width="5" stroke-linecap="round" stroke-linejoin="round" opacity="0.850" fill-rule="evenodd"/><path d="M204.00 108.00A8.00 8.00 0.00 1 1 188.00 108.00A8.00 8.00 0.00 1 1 204.00 108.00" fill="none" stroke="#E04BB6" stroke-width="5" stroke-linecap="round" stroke-linejoin="round" opacity="0.850" fill-rule="evenodd"/><path d="M176.00 148.00A8.00 8.00 0.00 1 1 160.00 148.00A8.00 8.00 0.00 1 1 176.00 148.00" fill="none" stroke="#E04BB6" stroke-width="5" stroke-linecap="round" stroke-linejoin="round" opacity="0.850" fill-rule="evenodd"/><path d="M212.00 180.00A8.00 8.00 0.00 1 1 196.00 180.00A8.00 8.00 0.00 1 1 212.00 180.00" fill="none" stroke="#E04BB6" stroke-width="5" stroke-linecap="round" stroke-linejoin="round" opacity="0.850" fill-rule="evenodd"/><path d="M156.00 188.00A8.00 8.00 0.00 1 1 140.00 188.00A8.00 8.00 0.00 1 1 156.00 188.00" fill="none" stroke="#E04BB6" stroke-width="5" stroke-linecap="round" stroke-linejoin="round" opacity="0.850" fill-rule="evenodd"/>
</svg>
